# xmcd
#
# Track frame offsets: 
#        150
#        15679
#        30734
#        74442
#        94605
#        115107
#        146061
#        181472
#
# Disc length: 2936 seconds
#
# Revision: 0
# Processed by: cddbd v1.5.2PL0 Copyright (c) Steve Scherf et al.
# Submitted via: ExactAudioCopy v0.95b3
#
DISCID=6a0b7608
DTITLE=Mr. Slide Band with Andrzej Wodziñski - Satyr Blues Night 2001 
DTITLE=LIVE!
DYEAR=2001
DGENRE=Polski Blues
TTITLE0=Hoochie Coochie Man
TTITLE1=Key to the highway
TTITLE2=Summertime
TTITLE3=Walking blues
TTITLE4=Going down
TTITLE5=Walking out the door
TTITLE6=Mystery train
TTITLE7=Bring my baby home
EXTD=
EXTT0=
EXTT1=
EXTT2=
EXTT3=
EXTT4=
EXTT5=
EXTT6=
EXTT7=
PLAYORDER=
